<svg width="12" height="335" viewBox="0 0 12 335" fill="none" xmlns="http://www.w3.org/2000/svg">
<path d="M6 0.666667C3.05448 0.666667 0.666667 3.05448 0.666667 6C0.666667 8.94552 3.05448 11.3333 6 11.3333C8.94552 11.3333 11.3333 8.94552 11.3333 6C11.3333 3.05448 8.94552 0.666667 6 0.666667ZM6 323.667C3.05448 323.667 0.666667 326.054 0.666667 329C0.666667 331.946 3.05448 334.333 6 334.333C8.94552 334.333 11.3333 331.946 11.3333 329C11.3333 326.054 8.94552 323.667 6 323.667ZM5 6L5 329H7L7 6H5Z" fill="black"/>
</svg>
